:FULLY-SPECIFIED
:FORCE-ALL-JOINTS-BE-3DOF
:DEGREES
15
root 0.297043 17.4324 -28.4581 3.95987 -3.64816 1.7419
lfemur -1.40587 4.12498 -26.3009
ltibia 59.2582 -0 0
lfoot 3.17781 2.32539 0.411259
ltoes -8.86853 0 0
rfemur -31.3474 -0.776729 20.7552
rtibia 71.8606 -0 0
rfoot 6.15989 -1.15544 -0.29332
rtoes 9.24748 -0 0
lowerback 17.5796 -1.33478 -3.53481
upperback 1.58588 -2.55153 -1.08312
thorax -8.0364 -1.1191 1.4476
lowerneck -3.52364 1.50855 -1.34776
upperneck -12.0627 2.17489 1.64507
head -3.2852 1.07589 0.756619
lclavicle -4.64899e-15 -1.98787e-16 -3.60715e-31
lhumerus -21.1108 -20.5519 87.9594
lradius 110.831 -0 0
lwrist 28.8299 0 0
lhand -38.0003 9.20425 -0.00704283
lfingers 7.12502 -0 0
lthumb -11.0395 38.8921 -0.00644505
rclavicle -4.64899e-15 -1.98787e-16 -3.60715e-31
rhumerus -53.9279 6.05955 -86.5916
rradius 86.4479 -0 0
rwrist -2.48566 0 0
rhand -46.6263 39.1352 -0.0273881
rfingers 7.12502 -0 0
rthumb -19.3466 10.0953 -0.0312402
16
root 0.311704 17.4553 -27.9031 3.9092 -4.07833 1.71778
lfemur -0.998491 4.53764 -26.1676
ltibia 60.5488 -0 0
lfoot 4.72377 2.45534 0.414766
ltoes -8.70068 0 0
rfemur -30.9941 -0.5587 21.0526
rtibia 69.2624 -0 0
rfoot 5.68013 -0.860508 -0.295789
rtoes 9.29899 -0 0
lowerback 17.4597 -1.34099 -3.42504
upperback 1.57746 -2.52729 -1.00507
thorax -7.98136 -1.1113 1.45995
lowerneck -3.55914 1.6256 -1.35008
upperneck -12.0044 2.31495 1.47039
head -3.25785 1.15108 0.697856
lclavicle -4.29952e-15 2.98174e-16 -3.63747e-31
lhumerus -21.9013 -20.5103 88.3242
lradius 110.614 -0 0
lwrist 28.9248 0 0
lhand -38.0581 9.26294 -0.00710202
lfingers 7.12502 -0 0
lthumb -11.0952 38.9478 -0.00649921
rclavicle -4.29952e-15 2.98174e-16 -3.63747e-31
rhumerus -53.8811 5.89168 -86.4706
rradius 86.8314 -0 0
rwrist -2.60659 0 0
rhand -46.4657 39.0531 -0.0276183
rfingers 7.12502 -0 0
rthumb -19.1922 9.99786 -0.0315028
17
root 0.326366 17.4783 -27.3482 3.85867 -4.50852 1.69403
lfemur -0.589906 4.94935 -26.0314
ltibia 61.8394 -0 0
lfoot 6.26973 2.58534 0.414766
ltoes -8.53284 0 0
rfemur -30.6398 -0.342511 21.3514
rtibia 66.6641 -0 0
rfoot 5.20037 -0.565562 -0.295789
rtoes 9.3505 -0 0
lowerback 17.3397 -1.34697 -3.31526
upperback 1.56908 -2.50305 -0.927031
thorax -7.92631 -1.10351 1.47231
lowerneck -3.59464 1.74265 -1.35248
upperneck -11.9465 2.45519 1.29582
head -3.23058 1.2263 0.639127
lclavicle -3.95004e-15 7.95136e-16 -3.63747e-31
lhumerus -22.6912 -20.4641 88.6882
lradius 110.398 -0 0
lwrist 29.0198 0 0
lhand -38.1159 9.32164 -0.00710202
lfingers 7.12502 -0 0
lthumb -11.1509 39.0034 -0.00649921
rclavicle -3.95004e-15 7.95136e-16 -3.63747e-31
rhumerus -53.8347 5.72371 -86.3498
rradius 87.215 -0 0
rwrist -2.72751 0 0
rhand -46.3051 38.9709 -0.0276183
rfingers 7.12502 -0 0
rthumb -19.0377 9.90043 -0.0315028
18
root 0.341028 17.5012 -26.7932 3.8083 -4.93872 1.67065
lfemur -0.180074 5.36007 -25.8921
ltibia 63.13 -0 0
lfoot 7.81569 2.71529 0.411259
ltoes -8.36499 0 0
rfemur -30.2843 -0.128176 21.6514
rtibia 64.0659 -0 0
rfoot 4.72061 -0.270628 -0.29332
rtoes 9.40201 -0 0
lowerback 17.2198 -1.35272 -3.20547
upperback 1.56072 -2.47879 -0.848995
thorax -7.87126 -1.09573 1.48467
lowerneck -3.63014 1.85969 -1.35494
upperneck -11.889 2.5956 1.12139
head -3.20339 1.30154 0.580432
lclavicle -3.60057e-15 1.2921e-15 -3.60715e-31
lhumerus -23.4806 -20.4131 89.0514
lradius 110.181 -0 0
lwrist 29.1147 0 0
lhand -38.1737 9.38033 -0.00704283
lfingers 7.12502 -0 0
lthumb -11.2066 39.0591 -0.00644505
rclavicle -3.60057e-15 1.2921e-15 -3.60715e-31
rhumerus -53.7887 5.55564 -86.2292
rradius 87.5985 -0 0
rwrist -2.84844 0 0
rhand -46.1445 38.8888 -0.0273881
rfingers 7.12502 -0 0
rthumb -18.8833 9.80301 -0.0312402
19
root 0.355689 17.5241 -26.2382 3.75807 -5.36895 1.64763
lfemur 0.231046 5.76979 -25.7497
ltibia 64.4206 -0 0
lfoot 9.36163 2.84509 0.404247
ltoes -8.19714 0 0
rfemur -29.9276 0.0842899 21.9528
rtibia 61.4676 -0 0
rfoot 4.24087 0.0242757 -0.288381
rtoes 9.45353 -0 0
lowerback 17.0998 -1.35824 -3.09566
upperback 1.5524 -2.45452 -0.770963
thorax -7.81621 -1.08797 1.49705
lowerneck -3.66566 1.97674 -1.35748
upperneck -11.8319 2.73619 0.94707
head -3.17627 1.37682 0.521771
lclavicle -3.25109e-15 1.78906e-15 -3.54653e-31
lhumerus -24.2694 -20.3575 89.4136
lradius 109.964 -0 0
lwrist 29.2096 0 0
lhand -38.2314 9.43902 -0.00692446
lfingers 7.12502 -0 0
lthumb -11.2624 39.1148 -0.00633673
rclavicle -3.25109e-15 1.78906e-15 -3.54653e-31
rhumerus -53.7431 5.38748 -86.1087
rradius 87.982 -0 0
rwrist -2.96937 0 0
rhand -45.9839 38.8067 -0.0269277
rfingers 7.12502 -0 0
rthumb -18.7289 9.70558 -0.0307151
20
root 0.370351 17.5471 -25.6832 3.70797 -5.7992 1.62497
lfemur 0.643496 6.17848 -25.6043
ltibia 65.7112 -0 0
lfoot 10.9076 2.97467 0.393736
ltoes -8.02929 0 0
rfemur -29.5699 0.294873 22.2555
rtibia 58.8694 -0 0
rfoot 3.76116 0.319127 -0.280973
rtoes 9.50504 -0 0
lowerback 16.9799 -1.36354 -2.98585
upperback 1.54411 -2.43024 -0.692937
thorax -7.76116 -1.08021 1.50943
lowerneck -3.70118 2.09378 -1.3601
upperneck -11.7752 2.87695 0.772872
head -3.14923 1.45212 0.463144
lclavicle -2.90161e-15 2.28602e-15 -3.45559e-31
lhumerus -25.0575 -20.2972 89.7749
lradius 109.748 -0 0
lwrist 29.3045 0 0
lhand -38.2892 9.49772 -0.0067469
lfingers 7.12502 -0 0
lthumb -11.3181 39.1705 -0.00617424
rclavicle -2.90161e-15 2.28602e-15 -3.45559e-31
rhumerus -53.6978 5.21922 -85.9884
rradius 88.3656 -0 0
rwrist -3.0903 0 0
rhand -45.8234 38.7245 -0.0262371
rfingers 7.12502 -0 0
rthumb -18.5745 9.60816 -0.0299274
21
root 0.385013 17.57 -25.1282 3.65801 -6.22947 1.60267
lfemur 1.05732 6.58612 -25.4558
ltibia 67.0019 -0 0
lfoot 12.4534 3.10391 0.379734
ltoes -7.86145 0 0
rfemur -29.2111 0.503559 22.5595
rtibia 56.2712 -0 0
rfoot 3.2815 0.613907 -0.271097
rtoes 9.55655 -0 0
lowerback 16.8599 -1.3686 -2.87602
upperback 1.53586 -2.40595 -0.614915
thorax -7.7061 -1.07247 1.52181
lowerneck -3.73671 2.21082 -1.36278
upperneck -11.719 3.01788 0.598792
head -3.12226 1.52745 0.404551
lclavicle -2.55214e-15 2.78298e-15 -3.33434e-31
lhumerus -25.8448 -20.2322 90.1352
lradius 109.531 -0 0
lwrist 29.3994 0 0
lhand -38.347 9.55641 -0.00651016
lfingers 7.12502 -0 0
lthumb -11.3738 39.2262 -0.00595759
rclavicle -2.55214e-15 2.78298e-15 -3.33434e-31
rhumerus -53.6528 5.05087 -85.8683
rradius 88.7491 -0 0
rwrist -3.21123 0 0
rhand -45.6628 38.6424 -0.0253164
rfingers 7.12502 -0 0
rthumb -18.4201 9.51074 -0.0288771
